<?xml version="1.0" standalone="no"?>
<!DOCTYPE svg PUBLIC "-//W3C//DTD SVG 1.1//EN" "http://www.w3.org/Graphics/SVG/1.1/DTD/svg11.dtd">
<svg xmlns:xlink="http://www.w3.org/1999/xlink" width="62.899ex" height="36.843ex" style="vertical-align: -17.838ex;" viewBox="0 -8182.5 27081.5 15862.7" xmlns="http://www.w3.org/2000/svg">
<defs>
<path stroke-width="10" id="E1-MJMAIN-27E8" d="M333 -232Q332 -239 327 -244T313 -250Q303 -250 296 -240Q293 -233 202 6T110 250T201 494T296 740Q299 745 306 749L309 750Q312 750 313 750Q331 750 333 732Q333 727 243 489Q152 252 152 250T243 11Q333 -227 333 -232Z"></path>
<path stroke-width="10" id="E1-MJMATHI-61" d="M33 157Q33 258 109 349T280 441Q331 441 370 392Q386 422 416 422Q429 422 439 414T449 394Q449 381 412 234T374 68Q374 43 381 35T402 26Q411 27 422 35Q443 55 463 131Q469 151 473 152Q475 153 483 153H487Q506 153 506 144Q506 138 501 117T481 63T449 13Q436 0 417 -8Q409 -10 393 -10Q359 -10 336 5T306 36L300 51Q299 52 296 50Q294 48 292 46Q233 -10 172 -10Q117 -10 75 30T33 157ZM351 328Q351 334 346 350T323 385T277 405Q242 405 210 374T160 293Q131 214 119 129Q119 126 119 118T118 106Q118 61 136 44T179 26Q217 26 254 59T298 110Q300 114 325 217T351 328Z"></path>
<path stroke-width="10" id="E1-MJMAIN-2C" d="M78 35T78 60T94 103T137 121Q165 121 187 96T210 8Q210 -27 201 -60T180 -117T154 -158T130 -185T117 -194Q113 -194 104 -185T95 -172Q95 -168 106 -156T131 -126T157 -76T173 -3V9L172 8Q170 7 167 6T161 3T152 1T140 0Q113 0 96 17Z"></path>
<path stroke-width="10" id="E1-MJMATHI-62" d="M73 647Q73 657 77 670T89 683Q90 683 161 688T234 694Q246 694 246 685T212 542Q204 508 195 472T180 418L176 399Q176 396 182 402Q231 442 283 442Q345 442 383 396T422 280Q422 169 343 79T173 -11Q123 -11 82 27T40 150V159Q40 180 48 217T97 414Q147 611 147 623T109 637Q104 637 101 637H96Q86 637 83 637T76 640T73 647ZM336 325V331Q336 405 275 405Q258 405 240 397T207 376T181 352T163 330L157 322L136 236Q114 150 114 114Q114 66 138 42Q154 26 178 26Q211 26 245 58Q270 81 285 114T318 219Q336 291 336 325Z"></path>
<path stroke-width="10" id="E1-MJMATHI-63" d="M34 159Q34 268 120 355T306 442Q362 442 394 418T427 355Q427 326 408 306T360 285Q341 285 330 295T319 325T330 359T352 380T366 386H367Q367 388 361 392T340 400T306 404Q276 404 249 390Q228 381 206 359Q162 315 142 235T121 119Q121 73 147 50Q169 26 205 26H209Q321 26 394 111Q403 121 406 121Q410 121 419 112T429 98T420 83T391 55T346 25T282 0T202 -11Q127 -11 81 37T34 159Z"></path>
<path stroke-width="10" id="E1-MJMATHI-64" d="M366 683Q367 683 438 688T511 694Q523 694 523 686Q523 679 450 384T375 83T374 68Q374 26 402 26Q411 27 422 35Q443 55 463 131Q469 151 473 152Q475 153 483 153H487H491Q506 153 506 145Q506 140 503 129Q490 79 473 48T445 8T417 -8Q409 -10 393 -10Q359 -10 336 5T306 36L300 51Q299 52 296 50Q294 48 292 46Q233 -10 172 -10Q117 -10 75 30T33 157Q33 205 53 255T101 341Q148 398 195 420T280 442Q336 442 364 400Q369 394 369 396Q370 400 396 505T424 616Q424 629 417 632T378 637H357Q351 643 351 645T353 664Q358 683 366 683ZM352 326Q329 405 277 405Q242 405 210 374T160 293Q131 214 119 129Q119 126 119 118T118 106Q118 61 136 44T179 26Q233 26 290 98L298 109L352 326Z"></path>
<path stroke-width="10" id="E1-MJMATHI-65" d="M39 168Q39 225 58 272T107 350T174 402T244 433T307 442H310Q355 442 388 420T421 355Q421 265 310 237Q261 224 176 223Q139 223 138 221Q138 219 132 186T125 128Q125 81 146 54T209 26T302 45T394 111Q403 121 406 121Q410 121 419 112T429 98T420 82T390 55T344 24T281 -1T205 -11Q126 -11 83 42T39 168ZM373 353Q367 405 305 405Q272 405 244 391T199 357T170 316T154 280T149 261Q149 260 169 260Q282 260 327 284T373 353Z"></path>
<path stroke-width="10" id="E1-MJMATHI-70" d="M23 287Q24 290 25 295T30 317T40 348T55 381T75 411T101 433T134 442Q209 442 230 378L240 387Q302 442 358 442Q423 442 460 395T497 281Q497 173 421 82T249 -10Q227 -10 210 -4Q199 1 187 11T168 28L161 36Q160 35 139 -51T118 -138Q118 -144 126 -145T163 -148H188Q194 -155 194 -157T191 -175Q188 -187 185 -190T172 -194Q170 -194 161 -194T127 -193T65 -192Q-5 -192 -24 -194H-32Q-39 -187 -39 -183Q-37 -156 -26 -148H-6Q28 -147 33 -136Q36 -130 94 103T155 350Q156 355 156 364Q156 405 131 405Q109 405 94 377T71 316T59 280Q57 278 43 278H29Q23 284 23 287ZM178 102Q200 26 252 26Q282 26 310 49T356 107Q374 141 392 215T411 325V331Q411 405 350 405Q339 405 328 402T306 393T286 380T269 365T254 350T243 336T235 326L232 322Q232 321 229 308T218 264T204 212Q178 106 178 102Z"></path>
<path stroke-width="10" id="E1-MJMATHI-71" d="M33 157Q33 258 109 349T280 441Q340 441 372 389Q373 390 377 395T388 406T404 418Q438 442 450 442Q454 442 457 439T460 434Q460 425 391 149Q320 -135 320 -139Q320 -147 365 -148H390Q396 -156 396 -157T393 -175Q389 -188 383 -194H370Q339 -192 262 -192Q234 -192 211 -192T174 -192T157 -193Q143 -193 143 -185Q143 -182 145 -170Q149 -154 152 -151T172 -148Q220 -148 230 -141Q238 -136 258 -53T279 32Q279 33 272 29Q224 -10 172 -10Q117 -10 75 30T33 157ZM352 326Q329 405 277 405Q242 405 210 374T160 293Q131 214 119 129Q119 126 119 118T118 106Q118 61 136 44T179 26Q233 26 290 98L298 109L352 326Z"></path>
<path stroke-width="10" id="E1-MJMATHI-72" d="M21 287Q22 290 23 295T28 317T38 348T53 381T73 411T99 433T132 442Q161 442 183 430T214 408T225 388Q227 382 228 382T236 389Q284 441 347 441H350Q398 441 422 400Q430 381 430 363Q430 333 417 315T391 292T366 288Q346 288 334 299T322 328Q322 376 378 392Q356 405 342 405Q286 405 239 331Q229 315 224 298T190 165Q156 25 151 16Q138 -11 108 -11Q95 -11 87 -5T76 7T74 17Q74 30 114 189T154 366Q154 405 128 405Q107 405 92 377T68 316T57 280Q55 278 41 278H27Q21 284 21 287Z"></path>
<path stroke-width="10" id="E1-MJMATHI-74" d="M26 385Q19 392 19 395Q19 399 22 411T27 425Q29 430 36 430T87 431H140L159 511Q162 522 166 540T173 566T179 586T187 603T197 615T211 624T229 626Q247 625 254 615T261 596Q261 589 252 549T232 470L222 433Q222 431 272 431H323Q330 424 330 420Q330 398 317 385H210L174 240Q135 80 135 68Q135 26 162 26Q197 26 230 60T283 144Q285 150 288 151T303 153H307Q322 153 322 145Q322 142 319 133Q314 117 301 95T267 48T216 6T155 -11Q125 -11 98 4T59 56Q57 64 57 83V101L92 241Q127 382 128 383Q128 385 77 385H26Z"></path>
<path stroke-width="10" id="E1-MJMATHI-6B" d="M121 647Q121 657 125 670T137 683Q138 683 209 688T282 694Q294 694 294 686Q294 679 244 477Q194 279 194 272Q213 282 223 291Q247 309 292 354T362 415Q402 442 438 442Q468 442 485 423T503 369Q503 344 496 327T477 302T456 291T438 288Q418 288 406 299T394 328Q394 353 410 369T442 390L458 393Q446 405 434 405H430Q398 402 367 380T294 316T228 255Q230 254 243 252T267 246T293 238T320 224T342 206T359 180T365 147Q365 130 360 106T354 66Q354 26 381 26Q429 26 459 145Q461 153 479 153H483Q499 153 499 144Q499 139 496 130Q455 -11 378 -11Q333 -11 305 15T277 90Q277 108 280 121T283 145Q283 167 269 183T234 206T200 217T182 220H180Q168 178 159 139T145 81T136 44T129 20T122 7T111 -2Q98 -11 83 -11Q66 -11 57 -1T48 16Q48 26 85 176T158 471L195 616Q196 629 188 632T149 637H144Q134 637 131 637T124 640T121 647Z"></path>
<path stroke-width="10" id="E1-MJMAIN-7C" d="M139 -249H137Q125 -249 119 -235V251L120 737Q130 750 139 750Q152 750 159 735V-235Q151 -249 141 -249H139Z"></path>
<path stroke-width="10" id="E1-MJMAIN-31" d="M213 578L200 573Q186 568 160 563T102 556H83V602H102Q149 604 189 617T245 641T273 663Q275 666 285 666Q294 666 302 660V361L303 61Q310 54 315 52T339 48T401 46H427V0H416Q395 3 257 3Q121 3 100 0H88V46H114Q136 46 152 46T177 47T193 50T201 52T207 57T213 61V578Z"></path>
<path stroke-width="10" id="E1-MJMAIN-30" d="M96 585Q152 666 249 666Q297 666 345 640T423 548Q460 465 460 320Q460 165 417 83Q397 41 362 16T301 -15T250 -22Q224 -22 198 -16T137 16T82 83Q39 165 39 320Q39 494 96 585ZM321 597Q291 629 250 629Q208 629 178 597Q153 571 145 525T137 333Q137 175 145 125T181 46Q209 16 250 16Q290 16 318 46Q347 76 354 130T362 333Q362 478 354 524T321 597Z"></path>
<path stroke-width="10" id="E1-MJMAIN-3D" d="M56 347Q56 360 70 367H707Q722 359 722 347Q722 336 708 328L390 327H72Q56 332 56 347ZM56 153Q56 168 72 173H708Q722 163 722 153Q722 140 707 133H70Q56 140 56 153Z"></path>
<path stroke-width="10" id="E1-MJMAIN-32" d="M109 429Q82 429 66 447T50 491Q50 562 103 614T235 666Q326 666 387 610T449 465Q449 422 429 383T381 315T301 241Q265 210 201 149L142 93L218 92Q375 92 385 97Q392 99 409 186V189H449V186Q448 183 436 95T421 3V0H50V19V31Q50 38 56 46T86 81Q115 113 136 137Q145 147 170 174T204 211T233 244T261 278T284 308T305 340T320 369T333 401T340 431T343 464Q343 527 309 573T212 619Q179 619 154 602T119 569T109 550Q109 549 114 549Q132 549 151 535T170 489Q170 464 154 447T109 429Z"></path>
<path stroke-width="10" id="E1-MJMAIN-33" d="M127 463Q100 463 85 480T69 524Q69 579 117 622T233 665Q268 665 277 664Q351 652 390 611T430 522Q430 470 396 421T302 350L299 348Q299 347 308 345T337 336T375 315Q457 262 457 175Q457 96 395 37T238 -22Q158 -22 100 21T42 130Q42 158 60 175T105 193Q133 193 151 175T169 130Q169 119 166 110T159 94T148 82T136 74T126 70T118 67L114 66Q165 21 238 21Q293 21 321 74Q338 107 338 175V195Q338 290 274 322Q259 328 213 329L171 330L168 332Q166 335 166 348Q166 366 174 366Q202 366 232 371Q266 376 294 413T322 525V533Q322 590 287 612Q265 626 240 626Q208 626 181 615T143 592T132 580H135Q138 579 143 578T153 573T165 566T175 555T183 540T186 520Q186 498 172 481T127 463Z"></path>
<path stroke-width="10" id="E1-MJMAIN-34" d="M462 0Q444 3 333 3Q217 3 199 0H190V46H221Q241 46 248 46T265 48T279 53T286 61Q287 63 287 115V165H28V211L179 442Q332 674 334 675Q336 677 355 677H373L379 671V211H471V165H379V114Q379 73 379 66T385 54Q393 47 442 46H471V0H462ZM293 211V545L74 212L183 211H293Z"></path>
<path stroke-width="10" id="E1-MJMAIN-35" d="M164 157Q164 133 148 117T109 101H102Q148 22 224 22Q294 22 326 82Q345 115 345 210Q345 313 318 349Q292 382 260 382H254Q176 382 136 314Q132 307 129 306T114 304Q97 304 95 310Q93 314 93 485V614Q93 664 98 664Q100 666 102 666Q103 666 123 658T178 642T253 634Q324 634 389 662Q397 666 402 666Q410 666 410 648V635Q328 538 205 538Q174 538 149 544L139 546V374Q158 388 169 396T205 412T256 420Q337 420 393 355T449 201Q449 109 385 44T229 -22Q148 -22 99 32T50 154Q50 178 61 192T84 210T107 214Q132 214 148 197T164 157Z"></path>
<path stroke-width="10" id="E1-MJMAIN-36" d="M42 313Q42 476 123 571T303 666Q372 666 402 630T432 550Q432 525 418 510T379 495Q356 495 341 509T326 548Q326 592 373 601Q351 623 311 626Q240 626 194 566Q147 500 147 364L148 360Q153 366 156 373Q197 433 263 433H267Q313 433 348 414Q372 400 396 374T435 317Q456 268 456 210V192Q456 169 451 149Q440 90 387 34T253 -22Q225 -22 199 -14T143 16T92 75T56 172T42 313ZM257 397Q227 397 205 380T171 335T154 278T148 216Q148 133 160 97T198 39Q222 21 251 21Q302 21 329 59Q342 77 347 104T352 209Q352 289 347 316T329 361Q302 397 257 397Z"></path>
<path stroke-width="10" id="E1-MJMAIN-37" d="M55 458Q56 460 72 567L88 674Q88 676 108 676H128V672Q128 662 143 655T195 646T364 644H485V605L417 512Q408 500 387 472T360 435T339 403T319 367T305 330T292 284T284 230T278 162T275 80Q275 66 275 52T274 28V19Q270 2 255 -10T221 -22Q210 -22 200 -19T179 0T168 40Q168 198 265 368Q285 400 349 489L395 552H302Q128 552 119 546Q113 543 108 522T98 479L95 458V455H55V458Z"></path>
<path stroke-width="10" id="E1-MJMAIN-38" d="M70 417T70 494T124 618T248 666Q319 666 374 624T429 515Q429 485 418 459T392 417T361 389T335 371T324 363L338 354Q352 344 366 334T382 323Q457 264 457 174Q457 95 399 37T249 -22Q159 -22 101 29T43 155Q43 263 172 335L154 348Q133 361 127 368Q70 417 70 494ZM286 386L292 390Q298 394 301 396T311 403T323 413T334 425T345 438T355 454T364 471T369 491T371 513Q371 556 342 586T275 624Q268 625 242 625Q201 625 165 599T128 534Q128 511 141 492T167 463T217 431Q224 426 228 424L286 386ZM250 21Q308 21 350 55T392 137Q392 154 387 169T375 194T353 216T330 234T301 253T274 270Q260 279 244 289T218 306L210 311Q204 311 181 294T133 239T107 157Q107 98 150 60T250 21Z"></path>
<path stroke-width="10" id="E1-MJMAIN-39" d="M352 287Q304 211 232 211Q154 211 104 270T44 396Q42 412 42 436V444Q42 537 111 606Q171 666 243 666Q245 666 249 666T257 665H261Q273 665 286 663T323 651T370 619T413 560Q456 472 456 334Q456 194 396 97Q361 41 312 10T208 -22Q147 -22 108 7T68 93T121 149Q143 149 158 135T173 96Q173 78 164 65T148 49T135 44L131 43Q131 41 138 37T164 27T206 22H212Q272 22 313 86Q352 142 352 280V287ZM244 248Q292 248 321 297T351 430Q351 508 343 542Q341 552 337 562T323 588T293 615T246 625Q208 625 181 598Q160 576 154 546T147 441Q147 358 152 329T172 282Q197 248 244 248Z"></path>
<path stroke-width="10" id="E1-MJMAIN-2212" d="M84 237T84 250T98 270H679Q694 262 694 250T679 230H98Q84 237 84 250Z"></path>
<path stroke-width="10" id="E1-MJMAIN-27E9" d="M55 732Q56 739 61 744T75 750Q85 750 92 740Q95 733 186 494T278 250T187 6T92 -240Q85 -250 75 -250Q67 -250 62 -245T55 -232Q55 -227 145 11Q236 248 236 250T145 489Q55 727 55 732Z"></path>
</defs>
<g stroke="currentColor" fill="currentColor" stroke-width="0" transform="matrix(1 0 0 -1 0 0)">
<g transform="translate(167,0)">
<g transform="translate(-11,0)">
 <use xlink:href="#E1-MJMAIN-27E8" x="0" y="7244"></use>
</g>
<g transform="translate(1383,0)">
<g transform="translate(0,7244)">
 <use xlink:href="#E1-MJMATHI-61" x="0" y="0"></use>
 <use xlink:href="#E1-MJMAIN-2C" x="534" y="0"></use>
 <use xlink:href="#E1-MJMATHI-62" x="983" y="0"></use>
 <use xlink:href="#E1-MJMAIN-2C" x="1417" y="0"></use>
 <use xlink:href="#E1-MJMATHI-63" x="1867" y="0"></use>
 <use xlink:href="#E1-MJMAIN-2C" x="2305" y="0"></use>
 <use xlink:href="#E1-MJMATHI-64" x="2754" y="0"></use>
 <use xlink:href="#E1-MJMAIN-2C" x="3282" y="0"></use>
 <use xlink:href="#E1-MJMATHI-65" x="3732" y="0"></use>
 <use xlink:href="#E1-MJMAIN-2C" x="4203" y="0"></use>
 <use xlink:href="#E1-MJMATHI-70" x="4653" y="0"></use>
 <use xlink:href="#E1-MJMAIN-2C" x="5161" y="0"></use>
 <use xlink:href="#E1-MJMATHI-71" x="5611" y="0"></use>
 <use xlink:href="#E1-MJMAIN-2C" x="6076" y="0"></use>
 <use xlink:href="#E1-MJMATHI-72" x="6525" y="0"></use>
 <use xlink:href="#E1-MJMAIN-2C" x="6981" y="0"></use>
 <use xlink:href="#E1-MJMATHI-74" x="7431" y="0"></use>
 <use xlink:href="#E1-MJMAIN-2C" x="7797" y="0"></use>
 <use xlink:href="#E1-MJMATHI-6B" x="8247" y="0"></use>
</g>
<g transform="translate(0,5743)">
 <use xlink:href="#E1-MJMATHI-70" x="0" y="0"></use>
<g transform="translate(508,362)">
 <use transform="scale(0.707)" xlink:href="#E1-MJMAIN-31"></use>
 <use transform="scale(0.707)" xlink:href="#E1-MJMAIN-30" x="505" y="0"></use>
</g>
 <use xlink:href="#E1-MJMATHI-61" x="1322" y="0"></use>
 <use xlink:href="#E1-MJMAIN-3D" x="2133" y="0"></use>
 <use xlink:href="#E1-MJMATHI-61" x="3194" y="0"></use>
 <use xlink:href="#E1-MJMATHI-70" x="3728" y="0"></use>
 <use xlink:href="#E1-MJMAIN-2C" x="4236" y="0"></use>
</g>
<g transform="translate(0,4297)">
 <use xlink:href="#E1-MJMATHI-70" x="0" y="0"></use>
<g transform="translate(508,362)">
 <use transform="scale(0.707)" xlink:href="#E1-MJMAIN-31"></use>
 <use transform="scale(0.707)" xlink:href="#E1-MJMAIN-30" x="505" y="0"></use>
</g>
 <use xlink:href="#E1-MJMATHI-62" x="1322" y="0"></use>
 <use xlink:href="#E1-MJMAIN-3D" x="2033" y="0"></use>
 <use xlink:href="#E1-MJMATHI-62" x="3094" y="0"></use>
 <use xlink:href="#E1-MJMATHI-70" x="3528" y="0"></use>
 <use xlink:href="#E1-MJMAIN-2C" x="4036" y="0"></use>
</g>
<g transform="translate(0,2851)">
 <use xlink:href="#E1-MJMATHI-70" x="0" y="0"></use>
<g transform="translate(508,362)">
 <use transform="scale(0.707)" xlink:href="#E1-MJMAIN-31"></use>
 <use transform="scale(0.707)" xlink:href="#E1-MJMAIN-30" x="505" y="0"></use>
</g>
 <use xlink:href="#E1-MJMATHI-63" x="1322" y="0"></use>
 <use xlink:href="#E1-MJMAIN-3D" x="2037" y="0"></use>
 <use xlink:href="#E1-MJMATHI-63" x="3098" y="0"></use>
 <use xlink:href="#E1-MJMATHI-70" x="3536" y="0"></use>
 <use xlink:href="#E1-MJMAIN-2C" x="4044" y="0"></use>
</g>
<g transform="translate(0,1398)">
 <use xlink:href="#E1-MJMATHI-70" x="0" y="0"></use>
<g transform="translate(508,362)">
 <use transform="scale(0.707)" xlink:href="#E1-MJMAIN-31"></use>
 <use transform="scale(0.707)" xlink:href="#E1-MJMAIN-30" x="505" y="0"></use>
</g>
 <use xlink:href="#E1-MJMATHI-64" x="1322" y="0"></use>
 <use xlink:href="#E1-MJMAIN-3D" x="2127" y="0"></use>
 <use xlink:href="#E1-MJMATHI-64" x="3188" y="0"></use>
 <use xlink:href="#E1-MJMATHI-70" x="3716" y="0"></use>
 <use xlink:href="#E1-MJMAIN-2C" x="4224" y="0"></use>
</g>
<g transform="translate(0,-48)">
 <use xlink:href="#E1-MJMATHI-70" x="0" y="0"></use>
<g transform="translate(508,362)">
 <use transform="scale(0.707)" xlink:href="#E1-MJMAIN-31"></use>
 <use transform="scale(0.707)" xlink:href="#E1-MJMAIN-30" x="505" y="0"></use>
</g>
 <use xlink:href="#E1-MJMATHI-65" x="1322" y="0"></use>
 <use xlink:href="#E1-MJMAIN-3D" x="2070" y="0"></use>
 <use xlink:href="#E1-MJMATHI-65" x="3131" y="0"></use>
 <use xlink:href="#E1-MJMATHI-70" x="3602" y="0"></use>
 <use xlink:href="#E1-MJMAIN-2C" x="4110" y="0"></use>
</g>
<g transform="translate(0,-1494)">
 <use xlink:href="#E1-MJMATHI-61" x="0" y="0"></use>
<g transform="translate(534,0)">
 <use xlink:href="#E1-MJMATHI-71" x="0" y="0"></use>
<g transform="translate(469,362)">
 <use transform="scale(0.707)" xlink:href="#E1-MJMAIN-31"></use>
 <use transform="scale(0.707)" xlink:href="#E1-MJMAIN-30" x="505" y="0"></use>
</g>
</g>
 <use xlink:href="#E1-MJMAIN-3D" x="2095" y="0"></use>
 <use xlink:href="#E1-MJMATHI-71" x="3155" y="0"></use>
 <use xlink:href="#E1-MJMATHI-61" x="3620" y="0"></use>
 <use xlink:href="#E1-MJMAIN-2C" x="4154" y="0"></use>
</g>
<g transform="translate(0,-2947)">
 <use xlink:href="#E1-MJMATHI-62" x="0" y="0"></use>
<g transform="translate(434,0)">
 <use xlink:href="#E1-MJMATHI-71" x="0" y="0"></use>
<g transform="translate(469,362)">
 <use transform="scale(0.707)" xlink:href="#E1-MJMAIN-31"></use>
 <use transform="scale(0.707)" xlink:href="#E1-MJMAIN-30" x="505" y="0"></use>
</g>
</g>
 <use xlink:href="#E1-MJMAIN-3D" x="1995" y="0"></use>
 <use xlink:href="#E1-MJMATHI-71" x="3055" y="0"></use>
 <use xlink:href="#E1-MJMATHI-62" x="3520" y="0"></use>
 <use xlink:href="#E1-MJMAIN-2C" x="3954" y="0"></use>
</g>
<g transform="translate(0,-4393)">
 <use xlink:href="#E1-MJMATHI-63" x="0" y="0"></use>
<g transform="translate(438,0)">
 <use xlink:href="#E1-MJMATHI-71" x="0" y="0"></use>
<g transform="translate(469,362)">
 <use transform="scale(0.707)" xlink:href="#E1-MJMAIN-31"></use>
 <use transform="scale(0.707)" xlink:href="#E1-MJMAIN-30" x="505" y="0"></use>
</g>
</g>
 <use xlink:href="#E1-MJMAIN-3D" x="1999" y="0"></use>
 <use xlink:href="#E1-MJMATHI-71" x="3059" y="0"></use>
 <use xlink:href="#E1-MJMATHI-63" x="3524" y="0"></use>
 <use xlink:href="#E1-MJMAIN-2C" x="3962" y="0"></use>
</g>
<g transform="translate(0,-5839)">
 <use xlink:href="#E1-MJMATHI-64" x="0" y="0"></use>
<g transform="translate(528,0)">
 <use xlink:href="#E1-MJMATHI-71" x="0" y="0"></use>
<g transform="translate(469,362)">
 <use transform="scale(0.707)" xlink:href="#E1-MJMAIN-31"></use>
 <use transform="scale(0.707)" xlink:href="#E1-MJMAIN-30" x="505" y="0"></use>
</g>
</g>
 <use xlink:href="#E1-MJMAIN-3D" x="2089" y="0"></use>
 <use xlink:href="#E1-MJMATHI-71" x="3149" y="0"></use>
 <use xlink:href="#E1-MJMATHI-64" x="3614" y="0"></use>
 <use xlink:href="#E1-MJMAIN-2C" x="4142" y="0"></use>
</g>
<g transform="translate(0,-7285)">
 <use xlink:href="#E1-MJMATHI-65" x="0" y="0"></use>
<g transform="translate(471,0)">
 <use xlink:href="#E1-MJMATHI-71" x="0" y="0"></use>
<g transform="translate(469,362)">
 <use transform="scale(0.707)" xlink:href="#E1-MJMAIN-31"></use>
 <use transform="scale(0.707)" xlink:href="#E1-MJMAIN-30" x="505" y="0"></use>
</g>
</g>
 <use xlink:href="#E1-MJMAIN-3D" x="2032" y="0"></use>
 <use xlink:href="#E1-MJMATHI-71" x="3092" y="0"></use>
 <use xlink:href="#E1-MJMATHI-65" x="3557" y="0"></use>
 <use xlink:href="#E1-MJMAIN-2C" x="4028" y="0"></use>
</g>
</g>
<g transform="translate(11156,0)">
 <use xlink:href="#E1-MJMAIN-7C" x="0" y="7244"></use>
<g transform="translate(0,5743)">
 <use xlink:href="#E1-MJMATHI-70" x="0" y="0"></use>
 <use xlink:href="#E1-MJMATHI-61" x="508" y="0"></use>
 <use xlink:href="#E1-MJMATHI-63" x="1042" y="0"></use>
 <use xlink:href="#E1-MJMATHI-71" x="1480" y="0"></use>
 <use xlink:href="#E1-MJMATHI-72" x="1945" y="0"></use>
 <use xlink:href="#E1-MJMAIN-3D" x="2678" y="0"></use>
 <use xlink:href="#E1-MJMATHI-72" x="3739" y="0"></use>
 <use xlink:href="#E1-MJMATHI-70" x="4195" y="0"></use>
 <use xlink:href="#E1-MJMATHI-63" x="4703" y="0"></use>
 <use xlink:href="#E1-MJMATHI-61" x="5141" y="0"></use>
 <use xlink:href="#E1-MJMATHI-71" x="5675" y="0"></use>
 <use xlink:href="#E1-MJMAIN-2C" x="6140" y="0"></use>
</g>
<g transform="translate(0,4297)">
 <use xlink:href="#E1-MJMATHI-70" x="0" y="0"></use>
 <use transform="scale(0.707)" xlink:href="#E1-MJMAIN-32" x="718" y="513"></use>
 <use xlink:href="#E1-MJMATHI-61" x="965" y="0"></use>
 <use xlink:href="#E1-MJMATHI-64" x="1499" y="0"></use>
<g transform="translate(2027,0)">
 <use xlink:href="#E1-MJMATHI-71" x="0" y="0"></use>
 <use transform="scale(0.707)" xlink:href="#E1-MJMAIN-32" x="663" y="513"></use>
</g>
 <use xlink:href="#E1-MJMATHI-72" x="2953" y="0"></use>
 <use xlink:href="#E1-MJMAIN-3D" x="3687" y="0"></use>
 <use xlink:href="#E1-MJMATHI-72" x="4747" y="0"></use>
<g transform="translate(5203,0)">
 <use xlink:href="#E1-MJMATHI-70" x="0" y="0"></use>
 <use transform="scale(0.707)" xlink:href="#E1-MJMAIN-32" x="718" y="513"></use>
</g>
 <use xlink:href="#E1-MJMATHI-64" x="6169" y="0"></use>
 <use xlink:href="#E1-MJMATHI-61" x="6697" y="0"></use>
<g transform="translate(7231,0)">
 <use xlink:href="#E1-MJMATHI-71" x="0" y="0"></use>
 <use transform="scale(0.707)" xlink:href="#E1-MJMAIN-32" x="663" y="513"></use>
</g>
 <use xlink:href="#E1-MJMAIN-2C" x="8157" y="0"></use>
</g>
<g transform="translate(0,2851)">
 <use xlink:href="#E1-MJMATHI-70" x="0" y="0"></use>
 <use transform="scale(0.707)" xlink:href="#E1-MJMAIN-33" x="718" y="513"></use>
 <use xlink:href="#E1-MJMATHI-62" x="965" y="0"></use>
 <use xlink:href="#E1-MJMATHI-63" x="1399" y="0"></use>
<g transform="translate(1837,0)">
 <use xlink:href="#E1-MJMATHI-71" x="0" y="0"></use>
 <use transform="scale(0.707)" xlink:href="#E1-MJMAIN-33" x="663" y="513"></use>
</g>
 <use xlink:href="#E1-MJMATHI-72" x="2763" y="0"></use>
 <use xlink:href="#E1-MJMAIN-3D" x="3497" y="0"></use>
 <use xlink:href="#E1-MJMATHI-72" x="4557" y="0"></use>
<g transform="translate(5013,0)">
 <use xlink:href="#E1-MJMATHI-70" x="0" y="0"></use>
 <use transform="scale(0.707)" xlink:href="#E1-MJMAIN-33" x="718" y="513"></use>
</g>
 <use xlink:href="#E1-MJMATHI-63" x="5979" y="0"></use>
 <use xlink:href="#E1-MJMATHI-62" x="6417" y="0"></use>
<g transform="translate(6851,0)">
 <use xlink:href="#E1-MJMATHI-71" x="0" y="0"></use>
 <use transform="scale(0.707)" xlink:href="#E1-MJMAIN-33" x="663" y="513"></use>
</g>
 <use xlink:href="#E1-MJMAIN-2C" x="7777" y="0"></use>
</g>
<g transform="translate(0,1398)">
 <use xlink:href="#E1-MJMATHI-70" x="0" y="0"></use>
 <use transform="scale(0.707)" xlink:href="#E1-MJMAIN-34" x="718" y="513"></use>
 <use xlink:href="#E1-MJMATHI-62" x="965" y="0"></use>
 <use xlink:href="#E1-MJMATHI-64" x="1399" y="0"></use>
<g transform="translate(1927,0)">
 <use xlink:href="#E1-MJMATHI-71" x="0" y="0"></use>
 <use transform="scale(0.707)" xlink:href="#E1-MJMAIN-34" x="663" y="513"></use>
</g>
 <use xlink:href="#E1-MJMATHI-72" x="2853" y="0"></use>
 <use xlink:href="#E1-MJMAIN-3D" x="3587" y="0"></use>
 <use xlink:href="#E1-MJMATHI-72" x="4647" y="0"></use>
<g transform="translate(5103,0)">
 <use xlink:href="#E1-MJMATHI-70" x="0" y="0"></use>
 <use transform="scale(0.707)" xlink:href="#E1-MJMAIN-34" x="718" y="513"></use>
</g>
 <use xlink:href="#E1-MJMATHI-64" x="6069" y="0"></use>
 <use xlink:href="#E1-MJMATHI-62" x="6597" y="0"></use>
<g transform="translate(7031,0)">
 <use xlink:href="#E1-MJMATHI-71" x="0" y="0"></use>
 <use transform="scale(0.707)" xlink:href="#E1-MJMAIN-34" x="663" y="513"></use>
</g>
 <use xlink:href="#E1-MJMAIN-2C" x="7957" y="0"></use>
</g>
<g transform="translate(0,-48)">
 <use xlink:href="#E1-MJMATHI-70" x="0" y="0"></use>
 <use transform="scale(0.707)" xlink:href="#E1-MJMAIN-35" x="718" y="513"></use>
 <use xlink:href="#E1-MJMATHI-63" x="965" y="0"></use>
 <use xlink:href="#E1-MJMATHI-65" x="1403" y="0"></use>
<g transform="translate(1874,0)">
 <use xlink:href="#E1-MJMATHI-71" x="0" y="0"></use>
 <use transform="scale(0.707)" xlink:href="#E1-MJMAIN-35" x="663" y="513"></use>
</g>
 <use xlink:href="#E1-MJMATHI-72" x="2800" y="0"></use>
 <use xlink:href="#E1-MJMAIN-3D" x="3534" y="0"></use>
 <use xlink:href="#E1-MJMATHI-72" x="4594" y="0"></use>
<g transform="translate(5050,0)">
 <use xlink:href="#E1-MJMATHI-70" x="0" y="0"></use>
 <use transform="scale(0.707)" xlink:href="#E1-MJMAIN-35" x="718" y="513"></use>
</g>
 <use xlink:href="#E1-MJMATHI-65" x="6016" y="0"></use>
 <use xlink:href="#E1-MJMATHI-63" x="6487" y="0"></use>
 <use xlink:href="#E1-MJMATHI-61" x="6925" y="0"></use>
<g transform="translate(7459,0)">
 <use xlink:href="#E1-MJMATHI-71" x="0" y="0"></use>
 <use transform="scale(0.707)" xlink:href="#E1-MJMAIN-35" x="663" y="513"></use>
</g>
 <use xlink:href="#E1-MJMAIN-2C" x="8385" y="0"></use>
</g>
<g transform="translate(0,-1494)">
 <use xlink:href="#E1-MJMATHI-70" x="0" y="0"></use>
 <use transform="scale(0.707)" xlink:href="#E1-MJMAIN-36" x="718" y="513"></use>
 <use xlink:href="#E1-MJMATHI-64" x="965" y="0"></use>
 <use xlink:href="#E1-MJMATHI-65" x="1493" y="0"></use>
<g transform="translate(1964,0)">
 <use xlink:href="#E1-MJMATHI-71" x="0" y="0"></use>
 <use transform="scale(0.707)" xlink:href="#E1-MJMAIN-36" x="663" y="513"></use>
</g>
 <use xlink:href="#E1-MJMATHI-72" x="2890" y="0"></use>
 <use xlink:href="#E1-MJMAIN-3D" x="3624" y="0"></use>
 <use xlink:href="#E1-MJMATHI-72" x="4684" y="0"></use>
<g transform="translate(5140,0)">
 <use xlink:href="#E1-MJMATHI-70" x="0" y="0"></use>
 <use transform="scale(0.707)" xlink:href="#E1-MJMAIN-36" x="718" y="513"></use>
</g>
 <use xlink:href="#E1-MJMATHI-65" x="6106" y="0"></use>
 <use xlink:href="#E1-MJMATHI-64" x="6577" y="0"></use>
 <use xlink:href="#E1-MJMATHI-62" x="7105" y="0"></use>
<g transform="translate(7539,0)">
 <use xlink:href="#E1-MJMATHI-71" x="0" y="0"></use>
 <use transform="scale(0.707)" xlink:href="#E1-MJMAIN-36" x="663" y="513"></use>
</g>
 <use xlink:href="#E1-MJMAIN-2C" x="8465" y="0"></use>
</g>
<g transform="translate(0,-2947)">
 <use xlink:href="#E1-MJMATHI-70" x="0" y="0"></use>
 <use transform="scale(0.707)" xlink:href="#E1-MJMAIN-37" x="718" y="513"></use>
 <use xlink:href="#E1-MJMATHI-63" x="965" y="0"></use>
 <use xlink:href="#E1-MJMATHI-64" x="1403" y="0"></use>
 <use xlink:href="#E1-MJMATHI-63" x="1931" y="0"></use>
<g transform="translate(2369,0)">
 <use xlink:href="#E1-MJMATHI-71" x="0" y="0"></use>
 <use transform="scale(0.707)" xlink:href="#E1-MJMAIN-37" x="663" y="513"></use>
</g>
 <use xlink:href="#E1-MJMATHI-72" x="3295" y="0"></use>
 <use xlink:href="#E1-MJMAIN-3D" x="4029" y="0"></use>
 <use xlink:href="#E1-MJMATHI-72" x="5089" y="0"></use>
<g transform="translate(5545,0)">
 <use xlink:href="#E1-MJMATHI-70" x="0" y="0"></use>
 <use transform="scale(0.707)" xlink:href="#E1-MJMAIN-37" x="718" y="513"></use>
</g>
 <use xlink:href="#E1-MJMATHI-63" x="6511" y="0"></use>
 <use xlink:href="#E1-MJMATHI-64" x="6949" y="0"></use>
 <use xlink:href="#E1-MJMATHI-63" x="7477" y="0"></use>
 <use xlink:href="#E1-MJMATHI-65" x="7915" y="0"></use>
<g transform="translate(8386,0)">
 <use xlink:href="#E1-MJMATHI-71" x="0" y="0"></use>
 <use transform="scale(0.707)" xlink:href="#E1-MJMAIN-37" x="663" y="513"></use>
</g>
 <use xlink:href="#E1-MJMAIN-2C" x="9312" y="0"></use>
</g>
<g transform="translate(0,-4393)">
 <use xlink:href="#E1-MJMATHI-70" x="0" y="0"></use>
 <use transform="scale(0.707)" xlink:href="#E1-MJMAIN-38" x="718" y="513"></use>
 <use xlink:href="#E1-MJMATHI-63" x="965" y="0"></use>
<g transform="translate(1403,0)">
 <use xlink:href="#E1-MJMATHI-61" x="0" y="0"></use>
 <use transform="scale(0.707)" xlink:href="#E1-MJMAIN-33" x="755" y="513"></use>
</g>
<g transform="translate(2394,0)">
 <use xlink:href="#E1-MJMATHI-71" x="0" y="0"></use>
 <use transform="scale(0.707)" xlink:href="#E1-MJMAIN-38" x="663" y="513"></use>
</g>
 <use xlink:href="#E1-MJMATHI-72" x="3320" y="0"></use>
 <use xlink:href="#E1-MJMAIN-3D" x="4054" y="0"></use>
 <use xlink:href="#E1-MJMATHI-72" x="5115" y="0"></use>
<g transform="translate(5571,0)">
 <use xlink:href="#E1-MJMATHI-70" x="0" y="0"></use>
 <use transform="scale(0.707)" xlink:href="#E1-MJMAIN-38" x="718" y="513"></use>
</g>
<g transform="translate(6536,0)">
 <use xlink:href="#E1-MJMATHI-61" x="0" y="0"></use>
 <use transform="scale(0.707)" xlink:href="#E1-MJMAIN-33" x="755" y="513"></use>
</g>
<g transform="translate(7527,0)">
 <use xlink:href="#E1-MJMATHI-71" x="0" y="0"></use>
 <use transform="scale(0.707)" xlink:href="#E1-MJMAIN-38" x="663" y="513"></use>
</g>
 <use xlink:href="#E1-MJMAIN-2C" x="8453" y="0"></use>
</g>
<g transform="translate(0,-5839)">
 <use xlink:href="#E1-MJMATHI-70" x="0" y="0"></use>
 <use transform="scale(0.707)" xlink:href="#E1-MJMAIN-39" x="718" y="513"></use>
 <use xlink:href="#E1-MJMATHI-64" x="965" y="0"></use>
<g transform="translate(1493,0)">
 <use xlink:href="#E1-MJMATHI-61" x="0" y="0"></use>
 <use transform="scale(0.707)" xlink:href="#E1-MJMAIN-33" x="755" y="513"></use>
</g>
<g transform="translate(2484,0)">
 <use xlink:href="#E1-MJMATHI-71" x="0" y="0"></use>
 <use transform="scale(0.707)" xlink:href="#E1-MJMAIN-39" x="663" y="513"></use>
</g>
 <use xlink:href="#E1-MJMATHI-72" x="3410" y="0"></use>
 <use xlink:href="#E1-MJMAIN-3D" x="4144" y="0"></use>
 <use xlink:href="#E1-MJMATHI-72" x="5205" y="0"></use>
<g transform="translate(5661,0)">
 <use xlink:href="#E1-MJMATHI-70" x="0" y="0"></use>
 <use transform="scale(0.707)" xlink:href="#E1-MJMAIN-39" x="718" y="513"></use>
</g>
<g transform="translate(6626,0)">
 <use xlink:href="#E1-MJMATHI-61" x="0" y="0"></use>
 <use transform="scale(0.707)" xlink:href="#E1-MJMAIN-33" x="755" y="513"></use>
</g>
<g transform="translate(7617,0)">
 <use xlink:href="#E1-MJMATHI-71" x="0" y="0"></use>
 <use transform="scale(0.707)" xlink:href="#E1-MJMAIN-39" x="663" y="513"></use>
</g>
 <use xlink:href="#E1-MJMAIN-2C" x="8543" y="0"></use>
</g>
<g transform="translate(0,-7285)">
 <use xlink:href="#E1-MJMATHI-61" x="0" y="0"></use>
<g transform="translate(534,362)">
 <use transform="scale(0.707)" xlink:href="#E1-MJMAIN-2212" x="0" y="0"></use>
 <use transform="scale(0.707)" xlink:href="#E1-MJMAIN-33" x="783" y="0"></use>
</g>
 <use xlink:href="#E1-MJMATHI-74" x="1544" y="0"></use>
<g transform="translate(1910,0)">
 <use xlink:href="#E1-MJMATHI-61" x="0" y="0"></use>
 <use transform="scale(0.707)" xlink:href="#E1-MJMAIN-33" x="755" y="513"></use>
</g>
 <use xlink:href="#E1-MJMATHI-6B" x="2901" y="0"></use>
 <use xlink:href="#E1-MJMAIN-3D" x="3705" y="0"></use>
 <use xlink:href="#E1-MJMATHI-6B" x="4766" y="0"></use>
<g transform="translate(5292,0)">
 <use xlink:href="#E1-MJMATHI-61" x="0" y="0"></use>
<g transform="translate(534,362)">
 <use transform="scale(0.707)" xlink:href="#E1-MJMAIN-2212" x="0" y="0"></use>
 <use transform="scale(0.707)" xlink:href="#E1-MJMAIN-33" x="783" y="0"></use>
</g>
</g>
 <use xlink:href="#E1-MJMATHI-74" x="6837" y="0"></use>
<g transform="translate(7203,0)">
 <use xlink:href="#E1-MJMATHI-61" x="0" y="0"></use>
 <use transform="scale(0.707)" xlink:href="#E1-MJMAIN-33" x="755" y="513"></use>
</g>
</g>
</g>
<g transform="translate(21751,0)">
<g transform="translate(0,5743)">
 <use xlink:href="#E1-MJMATHI-72" x="0" y="0"></use>
 <use xlink:href="#E1-MJMATHI-61" x="456" y="0"></use>
 <use xlink:href="#E1-MJMAIN-3D" x="1267" y="0"></use>
 <use xlink:href="#E1-MJMATHI-61" x="2328" y="0"></use>
 <use xlink:href="#E1-MJMATHI-72" x="2862" y="0"></use>
 <use xlink:href="#E1-MJMAIN-2C" x="3318" y="0"></use>
</g>
<g transform="translate(0,4297)">
 <use xlink:href="#E1-MJMATHI-72" x="0" y="0"></use>
 <use xlink:href="#E1-MJMATHI-62" x="456" y="0"></use>
 <use xlink:href="#E1-MJMAIN-3D" x="1167" y="0"></use>
 <use xlink:href="#E1-MJMATHI-62" x="2228" y="0"></use>
 <use xlink:href="#E1-MJMATHI-72" x="2662" y="0"></use>
 <use xlink:href="#E1-MJMAIN-2C" x="3118" y="0"></use>
</g>
<g transform="translate(0,2851)">
 <use xlink:href="#E1-MJMATHI-72" x="0" y="0"></use>
 <use xlink:href="#E1-MJMATHI-63" x="456" y="0"></use>
 <use xlink:href="#E1-MJMAIN-3D" x="1171" y="0"></use>
 <use xlink:href="#E1-MJMATHI-63" x="2232" y="0"></use>
 <use xlink:href="#E1-MJMATHI-72" x="2670" y="0"></use>
 <use xlink:href="#E1-MJMAIN-2C" x="3126" y="0"></use>
</g>
<g transform="translate(0,1398)">
 <use xlink:href="#E1-MJMATHI-72" x="0" y="0"></use>
 <use xlink:href="#E1-MJMATHI-64" x="456" y="0"></use>
 <use xlink:href="#E1-MJMAIN-3D" x="1261" y="0"></use>
 <use xlink:href="#E1-MJMATHI-64" x="2322" y="0"></use>
 <use xlink:href="#E1-MJMATHI-72" x="2850" y="0"></use>
 <use xlink:href="#E1-MJMAIN-2C" x="3306" y="0"></use>
</g>
<g transform="translate(0,-48)">
 <use xlink:href="#E1-MJMATHI-72" x="0" y="0"></use>
 <use xlink:href="#E1-MJMATHI-65" x="456" y="0"></use>
 <use xlink:href="#E1-MJMAIN-3D" x="1204" y="0"></use>
 <use xlink:href="#E1-MJMATHI-65" x="2265" y="0"></use>
 <use xlink:href="#E1-MJMATHI-72" x="2736" y="0"></use>
 <use xlink:href="#E1-MJMAIN-2C" x="3192" y="0"></use>
</g>
<g transform="translate(0,-1494)">
 <use xlink:href="#E1-MJMATHI-70" x="0" y="0"></use>
 <use xlink:href="#E1-MJMATHI-74" x="508" y="0"></use>
 <use xlink:href="#E1-MJMAIN-3D" x="1151" y="0"></use>
 <use xlink:href="#E1-MJMATHI-74" x="2212" y="0"></use>
 <use xlink:href="#E1-MJMATHI-70" x="2578" y="0"></use>
 <use xlink:href="#E1-MJMAIN-2C" x="3086" y="0"></use>
</g>
<g transform="translate(0,-2947)">
 <use xlink:href="#E1-MJMATHI-71" x="0" y="0"></use>
 <use xlink:href="#E1-MJMATHI-74" x="465" y="0"></use>
 <use xlink:href="#E1-MJMAIN-3D" x="1108" y="0"></use>
 <use xlink:href="#E1-MJMATHI-74" x="2169" y="0"></use>
 <use xlink:href="#E1-MJMATHI-71" x="2535" y="0"></use>
 <use xlink:href="#E1-MJMAIN-2C" x="3000" y="0"></use>
</g>
</g>
<g transform="translate(26353,0)">
 <use xlink:href="#E1-MJMAIN-27E9" x="0" y="-7285"></use>
</g>
</g>
</g>
</svg>